<?xml version="1.0" standalone="no"?>
<!DOCTYPE svg PUBLIC "-//W3C//DTD SVG 20010904//EN"
 "http://www.w3.org/TR/2001/REC-SVG-20010904/DTD/svg10.dtd">
<svg version="1.0" xmlns="http://www.w3.org/2000/svg"
 width="288.000000pt" height="288.000000pt" viewBox="0 0 288.000000 288.000000"
 preserveAspectRatio="xMidYMid meet">
<metadata>
Created by potrace 1.14, written by Peter Selinger 2001-2017
</metadata>
<g transform="translate(0.000000,288.000000) scale(0.100000,-0.100000)"
fill="#000000" stroke="none">
<path d="M1450 2760 c-46 -41 -64 -48 -75 -30 -10 16 -42 11 -51 -7 -4 -10 -9
-31 -11 -48 -6 -49 -11 -56 -36 -51 -48 9 -63 -25 -39 -90 15 -42 16 -47 1
-57 -42 -31 -49 -82 -16 -118 12 -13 22 -37 22 -53 0 -21 10 -36 35 -57 33
-27 92 -45 109 -34 5 2 4 26 -1 52 -13 74 -11 164 6 203 l15 35 -6 -56 c-7
-74 3 -136 28 -178 l20 -33 25 23 24 23 -26 27 -26 27 37 28 c70 54 84 69 87
94 3 22 -1 25 -30 28 -48 5 -51 28 -8 68 42 40 46 59 11 68 -30 8 -31 20 -6
83 37 95 -10 123 -89 53z"/>
<path d="M2147 2598 c-9 -7 -20 -35 -24 -63 -8 -47 -10 -50 -38 -51 -33 0 -34
-6 -20 -78 9 -43 13 -41 -54 -20 -28 8 -31 -29 -9 -89 24 -63 23 -74 -8 -81
-19 -5 -25 -12 -22 -29 2 -17 9 -21 28 -20 38 4 91 69 124 153 3 8 3 -3 0 -24
-6 -40 -56 -129 -87 -155 -40 -32 4 -66 76 -58 42 5 40 4 55 33 6 12 25 24 41
27 34 7 46 33 42 90 -1 20 1 37 6 37 17 0 53 41 53 61 0 11 -10 24 -24 31 -24
10 -24 11 -10 49 21 50 15 74 -16 74 -21 0 -28 8 -40 47 -16 45 -36 78 -49 78
-4 0 -15 -6 -24 -12z"/>
<path d="M768 2438 l-15 -22 -42 18 c-43 20 -56 16 -63 -19 -2 -13 -17 -23
-48 -32 -24 -7 -51 -20 -59 -28 -13 -13 -13 -17 3 -33 9 -11 34 -22 55 -26 39
-6 55 -24 45 -50 -7 -18 24 -25 53 -13 12 5 29 7 38 3 14 -5 14 -8 0 -36 -15
-29 -15 -30 10 -36 15 -4 51 0 80 9 51 14 74 10 61 -12 -9 -13 19 -32 38 -25
9 3 16 13 16 20 0 21 -76 100 -111 114 -16 7 -28 15 -25 17 10 10 94 -37 139
-77 l47 -42 15 37 c19 45 11 102 -16 110 -10 4 -19 15 -19 26 0 33 -36 60 -77
57 -23 -1 -38 2 -41 11 -7 20 -40 51 -56 51 -7 0 -20 -10 -28 -22z"/>
<path d="M324 2225 c-100 -22 -171 -81 -211 -171 -25 -57 -25 -205 -2 -329 28
-144 33 -232 16 -280 -15 -44 -65 -85 -103 -85 -22 0 -24 -4 -24 -55 0 -54 0
-54 33 -60 102 -19 125 -120 81 -342 -25 -125 -29 -251 -10 -315 40 -137 155
-218 314 -218 l62 0 0 49 c0 29 -5 53 -12 57 -7 5 -37 11 -67 15 -67 9 -99 32
-129 90 -26 51 -28 134 -6 273 8 44 16 99 20 121 3 22 6 72 6 112 1 90 -29
149 -98 189 l-45 26 28 15 c37 19 70 50 95 91 31 50 29 152 -7 337 -3 17 -8
76 -12 132 -4 91 -3 106 17 145 27 55 74 87 135 94 66 6 77 17 73 73 l-3 46
-50 1 c-27 0 -73 -5 -101 -11z"/>
<path d="M2400 2191 c0 -58 10 -68 74 -76 61 -7 95 -27 126 -73 22 -32 25 -46
25 -131 0 -93 -2 -115 -25 -251 -6 -36 -12 -99 -12 -140 -1 -64 3 -81 24 -115
29 -46 51 -66 92 -87 l30 -15 -37 -18 c-44 -20 -89 -76 -104 -125 -12 -43 -7
-136 13 -250 26 -145 29 -263 9 -315 -22 -59 -69 -95 -137 -104 -30 -4 -59
-10 -66 -15 -15 -9 -16 -103 -1 -108 6 -2 44 -1 84 3 128 12 212 66 262 167
26 52 28 66 28 167 -1 66 -8 144 -19 195 -21 103 -28 221 -15 260 15 42 54 77
94 84 35 7 35 7 35 61 0 51 -2 55 -24 55 -36 0 -90 42 -103 80 -16 43 -10 157
12 260 41 186 28 331 -36 418 -54 74 -135 110 -256 117 l-73 4 0 -48z"/>
<path d="M1030 1980 c0 -5 11 -33 25 -62 59 -128 95 -260 95 -351 l0 -44 -56
29 c-60 30 -104 36 -104 16 0 -7 22 -31 48 -53 96 -79 177 -194 205 -291 l15
-52 -43 24 c-55 32 -117 38 -177 18 -66 -22 -62 -40 12 -55 155 -30 239 -152
245 -356 3 -89 -18 -226 -40 -258 -7 -11 -24 -33 -38 -49 -27 -31 -29 -32
-166 -40 -72 -4 -96 -15 -103 -46 -2 -13 15 -15 105 -16 59 -1 110 -4 113 -7
3 -3 -7 -11 -23 -19 -15 -7 -29 -21 -31 -31 -3 -16 2 -17 47 -13 27 3 64 12
81 21 47 24 140 12 140 -19 0 -5 -15 -22 -32 -37 -23 -19 -30 -31 -23 -38 15
-15 84 7 120 39 17 15 47 37 69 50 36 22 40 22 66 7 16 -10 46 -17 69 -17 31
0 47 -7 71 -30 16 -16 44 -32 62 -35 106 -18 138 -1 66 34 -24 11 -61 39 -83
62 l-40 42 30 -8 c47 -11 178 -14 203 -4 42 16 19 34 -48 37 -38 2 -79 11
-102 23 -24 12 -54 19 -79 17 -37 -2 -45 2 -79 41 -86 96 -136 384 -95 542 38
142 160 264 325 323 32 12 59 26 61 31 11 27 -126 58 -191 43 -17 -3 -17 18 1
92 21 86 94 248 176 387 77 132 -136 -30 -229 -174 l-42 -65 -27 60 c-31 68
-93 142 -120 142 -17 0 -17 -3 2 -72 41 -147 50 -249 34 -367 l-7 -54 -33 69
c-43 88 -67 119 -89 111 -13 -5 -15 -11 -6 -26 36 -68 54 -272 30 -347 -26
-81 -35 -71 -56 56 -8 51 -47 131 -80 163 -31 31 -30 30 -38 126 -6 86 -48
227 -87 296 -50 89 -149 179 -149 135z"/>
<path d="M2398 1560 c-31 -24 -54 -26 -62 -5 -9 24 -23 18 -46 -20 -26 -41
-37 -44 -50 -10 -16 43 -37 31 -74 -44 -20 -39 -30 -51 -39 -42 -16 16 -44 13
-51 -5 -9 -23 -4 -26 48 -31 27 -3 63 1 92 11 61 21 66 20 27 -3 -36 -22 -84
-33 -171 -40 -21 -2 -5 -42 30 -74 23 -22 36 -27 58 -22 16 3 31 2 35 -4 12
-20 56 -11 80 14 17 19 31 25 52 22 44 -7 65 9 58 43 -6 25 -3 29 29 40 45 15
52 26 35 57 -12 22 -11 29 7 61 11 21 20 44 20 52 -1 23 -49 24 -78 0z"/>
<path d="M443 1414 c-3 -8 3 -33 13 -55 14 -33 15 -44 6 -60 -19 -29 -15 -38
24 -54 31 -13 35 -18 30 -39 -8 -31 14 -49 53 -44 22 2 36 -5 56 -26 21 -23
31 -27 53 -21 15 4 38 6 52 6 37 -1 70 19 87 52 8 16 13 30 11 32 -2 2 -21 6
-43 9 -63 10 -109 26 -136 48 l-24 19 30 -14 c42 -20 101 -29 136 -22 31 7 34
12 19 35 -8 12 -13 13 -29 3 -23 -14 -31 -7 -55 52 -15 36 -31 54 -47 55 -3 0
-11 -11 -17 -25 -15 -33 -27 -32 -42 5 -16 40 -27 45 -49 26 -16 -14 -20 -13
-53 9 -42 29 -66 32 -75 9z"/>
</g>
</svg>
