<?xml version="1.0" standalone="no"?>
<!DOCTYPE svg PUBLIC "-//W3C//DTD SVG 20010904//EN"
 "http://www.w3.org/TR/2001/REC-SVG-20010904/DTD/svg10.dtd">
<svg version="1.0" xmlns="http://www.w3.org/2000/svg"
 width="288.000000pt" height="288.000000pt" viewBox="0 0 288.000000 288.000000"
 preserveAspectRatio="xMidYMid meet">
<metadata>
Created by potrace 1.14, written by Peter Selinger 2001-2017
</metadata>
<g transform="translate(0.000000,288.000000) scale(0.100000,-0.100000)"
fill="#000000" stroke="none">
<path d="M1450 2760 c-49 -44 -52 -45 -81 -29 -29 15 -54 -10 -57 -57 -4 -50
-9 -57 -44 -52 -42 7 -53 -26 -30 -87 11 -31 13 -48 6 -53 -19 -13 -44 -56
-44 -77 0 -11 11 -32 25 -47 19 -20 24 -34 19 -52 -7 -30 34 -71 88 -88 57
-17 67 -8 56 49 -13 69 -11 165 6 204 l15 34 -6 -56 c-7 -74 3 -136 28 -178
l20 -33 25 23 25 24 -27 22 -27 21 30 29 c16 15 44 39 61 53 17 14 32 36 34
50 3 21 -2 26 -27 28 -56 7 -59 21 -15 62 46 43 50 57 15 70 -29 11 -31 32 -9
75 17 32 21 75 10 94 -14 22 -51 10 -96 -29z"/>
<path d="M2147 2598 c-9 -7 -20 -35 -24 -63 -8 -48 -10 -50 -41 -50 -36 0 -36
0 -21 -61 6 -25 9 -47 6 -51 -4 -3 -20 0 -37 7 -17 7 -32 11 -35 9 -11 -12
-12 -60 -1 -80 38 -78 38 -79 6 -90 -30 -11 -35 -23 -24 -53 14 -36 98 38 136
119 l19 40 -7 -35 c-8 -40 -44 -102 -86 -146 -26 -28 -27 -32 -12 -45 9 -7 41
-14 70 -16 51 -2 55 0 69 28 9 16 19 28 23 27 17 -5 50 14 59 35 5 12 7 34 3
49 -7 22 -2 31 26 56 37 33 44 69 17 79 -28 10 -33 25 -17 56 18 34 15 72 -6
73 -8 1 -20 2 -27 2 -6 1 -17 19 -23 40 -14 43 -37 82 -48 82 -5 0 -16 -6 -25
-12z"/>
<path d="M768 2438 l-15 -22 -42 18 c-44 20 -56 16 -63 -19 -2 -14 -18 -25
-50 -35 -55 -18 -71 -31 -63 -53 7 -16 55 -37 86 -37 19 0 21 -5 23 -45 1 -16
7 -19 31 -16 60 8 70 6 66 -9 -14 -54 -13 -58 10 -62 13 -2 45 4 70 13 43 16
72 13 68 -7 -4 -22 2 -32 19 -29 9 2 20 4 25 4 32 4 -25 80 -93 124 -29 18
-36 26 -20 22 42 -13 73 -31 123 -75 l47 -42 15 37 c19 45 11 102 -16 110 -10
4 -19 15 -19 26 0 32 -37 61 -71 55 -29 -4 -36 0 -71 43 -23 27 -42 27 -60 -1z"/>
<path d="M330 2223 c-32 -6 -72 -18 -89 -27 -61 -32 -118 -104 -139 -176 -13
-46 -9 -203 8 -291 48 -252 29 -349 -72 -366 l-39 -6 3 -56 c2 -31 8 -56 13
-57 42 -2 73 -19 95 -51 21 -30 25 -48 25 -107 -1 -77 -8 -137 -29 -234 -21
-98 -15 -246 12 -308 55 -123 185 -188 350 -175 8 1 12 18 12 51 0 55 -15 70
-70 70 -69 0 -128 45 -150 114 -15 46 -8 178 15 306 9 47 16 122 17 166 1 71
-2 87 -24 125 -15 25 -46 56 -72 73 l-46 29 28 14 c45 24 90 74 105 117 18 54
10 183 -20 321 -2 11 -6 65 -9 120 -4 78 -2 108 10 135 30 68 66 95 138 104
76 10 78 12 78 71 l0 52 -46 -1 c-26 0 -72 -6 -104 -13z"/>
<path d="M2400 2192 c0 -26 4 -53 8 -60 5 -7 33 -15 62 -17 61 -5 109 -33 136
-80 26 -43 28 -167 4 -312 -24 -141 -28 -245 -12 -294 13 -39 61 -89 105 -112
l28 -15 -45 -26 c-29 -17 -56 -44 -72 -72 -24 -41 -27 -56 -26 -128 1 -44 9
-119 17 -166 9 -47 19 -130 21 -185 5 -91 3 -104 -18 -144 -30 -58 -62 -81
-129 -90 -30 -4 -60 -10 -67 -15 -7 -4 -12 -29 -12 -60 l0 -52 48 3 c172 11
260 61 314 178 28 62 33 193 11 310 -37 202 -39 280 -8 333 19 31 87 68 106
57 5 -4 9 19 9 53 l0 59 -39 7 c-98 15 -122 123 -75 338 22 102 29 256 14 304
-22 71 -41 104 -83 144 -52 50 -124 78 -221 84 l-76 5 0 -47z"/>
<path d="M1030 1976 c0 -7 10 -33 23 -57 53 -101 96 -258 97 -351 l0 -47 -56
30 c-54 28 -104 38 -104 21 0 -5 39 -49 88 -98 94 -97 142 -169 165 -251 l15
-51 -48 25 c-26 14 -64 26 -85 28 -48 5 -135 -21 -135 -40 0 -8 3 -16 8 -16 4
-1 16 -3 27 -4 125 -15 211 -91 252 -223 31 -102 17 -337 -25 -402 -44 -70
-62 -78 -167 -83 -83 -3 -102 -7 -122 -25 -14 -12 -22 -25 -19 -30 2 -4 53 -9
112 -10 60 -2 110 -4 112 -6 2 -3 -9 -10 -25 -18 -15 -7 -29 -21 -31 -31 -3
-16 2 -18 45 -14 27 2 63 12 81 21 50 26 141 10 142 -25 0 -3 -13 -15 -30 -27
-27 -21 -41 -52 -22 -52 32 1 107 34 131 59 17 17 37 31 45 31 8 0 16 5 18 12
6 17 39 19 62 2 11 -8 39 -14 62 -14 30 0 48 -6 65 -24 35 -34 57 -43 122 -50
47 -6 57 -4 57 8 0 8 -19 24 -42 34 -24 11 -61 39 -83 62 -36 39 -38 42 -15
36 50 -14 175 -18 203 -7 45 18 27 36 -37 37 -33 1 -77 11 -106 23 -28 12 -66
21 -86 19 -32 -2 -41 3 -75 42 -86 98 -136 383 -94 540 37 141 150 255 317
320 37 15 71 29 74 32 3 4 -7 15 -22 25 -20 13 -50 18 -108 20 l-81 2 3 32 c9
83 83 264 166 403 26 44 43 83 38 88 -12 12 -89 -40 -150 -102 -48 -50 -72
-81 -116 -153 -9 -15 -21 -25 -27 -21 -6 3 -8 8 -5 11 16 16 -102 183 -131
183 -18 0 -16 -23 6 -102 33 -114 41 -218 26 -336 l-7 -55 -34 69 c-45 91 -67
119 -88 111 -12 -5 -14 -11 -8 -24 50 -97 57 -347 11 -397 -11 -12 -25 26 -33
89 -9 63 -45 142 -81 178 -31 30 -31 32 -38 122 -9 113 -48 235 -104 323 -53
85 -133 149 -133 108z"/>
<path d="M2398 1560 c-32 -25 -54 -26 -68 -2 -10 16 -11 16 -23 -2 -26 -39
-48 -61 -53 -50 -3 6 -11 20 -18 30 -12 16 -16 16 -31 4 -9 -7 -28 -35 -41
-62 -22 -44 -44 -63 -44 -38 0 18 -38 10 -43 -9 -9 -34 62 -42 149 -16 43 12
47 12 29 -1 -24 -18 -78 -33 -141 -39 -26 -3 -49 -7 -52 -9 -2 -3 4 -20 13
-39 16 -34 48 -54 90 -56 11 0 34 -3 52 -7 27 -5 36 -2 57 21 18 19 32 26 47
22 12 -3 32 -1 46 4 20 7 24 14 19 34 -5 21 -1 27 34 45 36 18 55 50 30 50
-16 0 -12 36 8 72 10 18 18 40 18 48 -1 23 -49 24 -78 0z"/>
<path d="M443 1414 c-3 -8 3 -33 13 -55 14 -33 15 -44 6 -60 -19 -29 -15 -39
24 -55 32 -13 35 -18 29 -44 -6 -25 -3 -30 19 -36 14 -3 33 -4 41 0 9 3 26 -6
42 -24 28 -32 51 -37 85 -19 14 8 23 8 31 0 15 -15 64 14 83 50 8 17 14 33 12
35 -3 2 -22 6 -43 9 -58 7 -132 34 -147 53 -12 15 -10 15 14 -1 31 -20 136
-33 156 -19 7 5 10 16 6 25 -7 19 -29 23 -39 7 -12 -19 -23 -10 -40 33 -17 42
-42 77 -55 77 -4 0 -12 -11 -18 -25 -15 -33 -27 -32 -42 5 -16 40 -27 45 -49
26 -16 -14 -20 -13 -53 9 -42 29 -66 32 -75 9z"/>
</g>
</svg>
