<?xml version="1.0" encoding="UTF-8" standalone="no"?><!DOCTYPE svg PUBLIC "-//W3C//DTD SVG 1.1//EN" "http://www.w3.org/Graphics/SVG/1.1/DTD/svg11.dtd"><svg width="100%" height="100%" viewBox="0 0 142 142" version="1.1" xmlns="http://www.w3.org/2000/svg" xmlns:xlink="http://www.w3.org/1999/xlink" xml:space="preserve" xmlns:serif="http://www.serif.com/" style="fill-rule:evenodd;clip-rule:evenodd;stroke-miterlimit:2;"><g id="Facebook"><path d="M71.329,135.753l0,-0c-36.666,-0 -66.666,-30 -66.666,-66.667c-0,-36.666 30,-66.666 66.666,-66.666l0,-0c36.667,-0 66.667,30 66.667,66.666c-0,36.667 -30,66.667 -66.667,66.667Z" style="fill:none;stroke:#231f20;stroke-width:2.03px;stroke-dasharray:5.78,5.78,5.78,5.78,5.78,5.78;"/><path d="M83.216,40.906c2.887,-0.102 5.763,-0.025 8.656,-0.025l1.195,-0l0,-15.014c-1.541,-0.147 -3.153,-0.373 -4.763,-0.453c-2.963,-0.128 -5.927,-0.276 -8.89,-0.207c-4.522,0.097 -8.802,1.197 -12.539,3.875c-4.286,3.083 -6.633,7.414 -7.527,12.525c-0.38,2.107 -0.468,4.299 -0.528,6.437c-0.076,3.371 -0.009,6.731 -0.009,10.103l-0,1.266l-14.362,-0l-0,16.764l14.276,0l0,42.131l17.448,-0l0,-42.064l14.228,0c0.725,-5.579 1.435,-11.098 2.181,-16.842c-1.145,0 -2.165,-0.007 -3.186,0c-4.055,0.019 -13.344,0 -13.344,0c0,0 0.045,-8.307 0.139,-11.911c0.138,-4.938 3.067,-6.447 7.025,-6.585Z" style="fill:#4a78bc;"/></g></svg>