<?xml version="1.0" encoding="UTF-8" standalone="no"?><!DOCTYPE svg PUBLIC "-//W3C//DTD SVG 1.1//EN" "http://www.w3.org/Graphics/SVG/1.1/DTD/svg11.dtd"><svg width="100%" height="100%" viewBox="0 0 142 142" version="1.1" xmlns="http://www.w3.org/2000/svg" xmlns:xlink="http://www.w3.org/1999/xlink" xml:space="preserve" xmlns:serif="http://www.serif.com/" style="fill-rule:evenodd;clip-rule:evenodd;stroke-miterlimit:2;"><g id="Pinterest"><path d="M69.811,135.753c-36.666,-0 -66.666,-30 -66.666,-66.667c-0,-36.666 30,-66.666 66.666,-66.666c36.667,-0 66.667,30 66.667,66.666c-0,36.667 -30,66.667 -66.667,66.667Z" style="fill:none;stroke:#231f20;stroke-width:2.03px;stroke-dasharray:5.78,5.78,5.78,5.78,5.78,5.78;"/><path d="M64.125,82.745c-0.073,0.261 -0.14,0.468 -0.193,0.691c-3.302,12.91 -3.659,15.772 -7.053,21.766c-1.609,2.847 -3.427,5.544 -5.442,8.125c-0.223,0.295 -0.44,0.672 -0.89,0.585c-0.507,-0.111 -0.536,-0.551 -0.585,-0.957c-0.551,-3.92 -0.841,-7.85 -0.72,-11.809c0.169,-5.157 0.817,-6.926 7.458,-34.882c0.097,-0.429 -0.014,-0.787 -0.149,-1.169c-1.591,-4.297 -1.905,-8.653 -0.522,-13.064c3.011,-9.539 13.829,-10.268 15.709,-2.402c1.17,4.866 -1.914,11.232 -4.273,20.649c-1.962,7.769 7.178,13.293 14.994,7.617c7.202,-5.224 10.001,-17.753 9.474,-26.636c-1.049,-17.703 -20.461,-21.533 -32.792,-15.831c-14.114,6.529 -17.323,24.032 -10.943,32.036c0.802,1.013 1.426,1.637 1.165,2.668c-0.42,1.606 -0.778,3.22 -1.228,4.81c-0.319,1.181 -1.319,1.614 -2.518,1.126c-2.349,-0.948 -4.307,-2.447 -5.897,-4.41c-5.414,-6.708 -6.96,-19.969 0.202,-31.2c7.933,-12.443 22.68,-17.47 36.156,-15.945c16.092,1.831 26.262,12.821 28.156,25.296c0.87,5.678 0.247,19.689 -7.729,29.585c-9.169,11.379 -24.047,12.133 -30.901,5.149c-0.532,-0.532 -0.962,-1.16 -1.479,-1.798Z" style="fill:#f04a48;"/></g></svg>