<?xml version="1.0" encoding="UTF-8" standalone="no"?><!DOCTYPE svg PUBLIC "-//W3C//DTD SVG 1.1//EN" "http://www.w3.org/Graphics/SVG/1.1/DTD/svg11.dtd"><svg width="100%" height="100%" viewBox="0 0 142 142" version="1.1" xmlns="http://www.w3.org/2000/svg" xmlns:xlink="http://www.w3.org/1999/xlink" xml:space="preserve" xmlns:serif="http://www.serif.com/" style="fill-rule:evenodd;clip-rule:evenodd;stroke-miterlimit:2;"><g id="TikTok"><path d="M72.46,135.752c-36.667,0 -66.667,-29.999 -66.667,-66.666c0,-36.667 30,-66.667 66.667,-66.667c36.666,0 66.666,30 66.666,66.667c0,36.667 -30,66.666 -66.666,66.666Z" style="fill:none;stroke:#231f20;stroke-width:2.03px;stroke-dasharray:5.78,5.78,5.78,5.78,5.78,5.78;"/><path d="M112.525,50.254l0,14.244c0,0 -5.064,-0.209 -8.826,-1.201c-5.242,-1.393 -8.605,-3.535 -8.605,-3.535c-0,0 -2.333,-1.532 -2.505,-1.637l-0,29.429c-0,1.637 -0.434,5.73 -1.741,9.142c-1.706,4.458 -4.354,7.401 -4.843,7.993c0,0 -3.22,3.97 -8.881,6.635c-5.104,2.403 -9.596,2.351 -10.937,2.403c-0,0 -7.747,0.313 -14.73,-4.406c-1.514,-1.044 -2.929,-2.229 -4.216,-3.534l0.035,0.035c6.982,4.736 14.734,4.405 14.734,4.405c1.341,-0.052 5.834,0 10.933,-2.403c5.661,-2.665 8.881,-6.635 8.881,-6.635c0.488,-0.592 3.136,-3.534 4.842,-7.993c1.307,-3.413 1.741,-7.505 1.741,-9.142l-0,-29.412c0.192,0.105 2.51,1.637 2.51,1.637c-0,0 3.358,2.142 8.6,3.535c3.762,0.993 8.832,1.202 8.832,1.202l-0,-11.162c1.74,0.4 3.22,0.505 4.176,0.4Zm-19.138,-10.239c-3.151,-3.605 -4.354,-7.261 -4.788,-9.821l3.97,-0c-0,-0 -0.784,6.721 4.98,13.321l0.089,0.087c-1.568,-1.01 -2.998,-2.229 -4.251,-3.587Zm-43.601,42.907c0.503,-4.336 2.209,-6.756 5.414,-9.246c4.596,-3.361 10.326,-1.463 10.326,-1.463l-0,-11.302c1.396,-0.034 2.786,0.052 4.162,0.261l-0,14.541c-0,0 -5.73,-1.898 -10.326,1.463c-3.205,2.49 -4.912,4.911 -5.414,9.247c-0.02,2.35 0.399,5.432 2.352,8.079c-0.489,-0.261 -0.977,-0.557 -1.485,-0.888c-4.265,-2.995 -5.049,-7.505 -5.029,-10.692Zm-11.303,18.267l0.281,0.802c-0.039,-0.088 -0.143,-0.366 -0.281,-0.802Z" style="fill:#ee315d;fill-rule:nonzero;"/><path d="M108.349,49.836l-0,11.162c-0,0 -5.07,-0.208 -8.832,-1.201c-5.242,-1.393 -8.6,-3.535 -8.6,-3.535c-0,-0 -2.333,-1.532 -2.51,-1.637l-0,29.429c-0,1.637 -0.434,5.729 -1.741,9.142c-1.706,4.459 -4.354,7.401 -4.842,7.993c-0,0 -3.22,3.97 -8.881,6.635c-5.099,2.403 -9.592,2.351 -10.933,2.403c0,0 -7.752,0.313 -14.734,-4.405l-0.035,-0.035c-0.73,-0.749 -1.425,-1.533 -2.071,-2.351c-2.229,-2.839 -3.585,-6.182 -3.935,-7.14l-0,-0.017c-0.557,-1.655 -1.706,-5.66 -1.549,-9.508c0.277,-6.809 2.574,-11.006 3.186,-12.051c1.603,-2.855 3.708,-5.416 6.184,-7.557c2.194,-1.846 4.679,-3.326 7.347,-4.353c2.89,-1.219 5.992,-1.864 9.123,-1.916l-0,11.302c-0,-0 -5.73,-1.899 -10.326,1.462c-3.205,2.49 -4.911,4.911 -5.414,9.247c-0.02,3.186 0.764,7.697 5.049,10.709c0.503,0.331 0.991,0.627 1.479,0.888c0.75,1.01 1.657,1.898 2.698,2.63c4.201,2.769 7.697,2.96 12.19,1.167c2.998,-1.202 5.242,-3.901 6.287,-6.914c0.661,-1.88 0.646,-3.761 0.646,-5.711l0,-55.48l10.449,-0c0.434,2.56 1.618,6.216 4.789,9.821c1.267,1.358 2.697,2.577 4.245,3.587c0.454,0.505 2.806,2.943 5.834,4.458c1.553,0.784 3.205,1.376 4.897,1.776Z" style="fill:#231f20;fill-rule:nonzero;"/><path d="M37.073,92.848l0.261,0.749c-0.034,-0.087 -0.138,-0.349 -0.261,-0.749Z" style="fill:#5dc7ce;fill-rule:nonzero;"/><path d="M56.403,62.827c-2.682,1.027 -5.153,2.507 -7.347,4.353c-2.491,2.142 -4.581,4.719 -6.184,7.575c-0.612,1.045 -2.909,5.225 -3.186,12.051c-0.157,3.865 1.006,7.853 1.549,9.507l-0,0.017c0.35,0.941 1.706,4.302 3.935,7.14c0.646,0.819 1.341,1.603 2.071,2.352c-2.367,-1.638 -4.458,-3.605 -6.248,-5.852c-2.214,-2.803 -3.57,-6.129 -3.92,-7.104l-0,-0.036c-0.557,-1.654 -1.726,-5.659 -1.549,-9.525c0.277,-6.808 2.575,-11.005 3.186,-12.05c1.603,-2.856 3.694,-5.434 6.184,-7.575c2.189,-1.846 4.68,-3.326 7.347,-4.353c1.672,-0.697 3.413,-1.202 5.188,-1.532c2.683,-0.471 5.414,-0.506 8.117,-0.123l-0,3.239c-3.151,0.052 -6.253,0.697 -9.143,1.916Z" style="fill:#5dc7ce;fill-rule:nonzero;"/><path d="M108.349,46.754l-0,3.082c-1.692,-0.4 -3.344,-0.992 -4.897,-1.776c-3.013,-1.498 -5.36,-3.953 -5.834,-4.458c0.543,0.348 1.08,0.662 1.657,0.958c3.694,1.828 7.298,2.385 9.074,2.194Zm-19.75,-16.56l-10.449,-0l-0,55.48c-0,1.95 -0,3.831 -0.641,5.711c-1.065,2.996 -3.309,5.712 -6.287,6.914c-4.493,1.811 -8.009,1.602 -12.19,-1.167c-1.046,-0.714 -1.953,-1.602 -2.698,-2.612c3.57,1.898 6.756,1.863 10.706,0.278c2.998,-1.201 5.242,-3.917 6.287,-6.913c0.661,-1.88 0.646,-3.761 0.646,-5.712l0,-55.48l14.434,0c-0.015,0 -0.173,1.376 0.192,3.501Z" style="fill:#5dc7ce;fill-rule:nonzero;"/></g></svg>