<?xml version="1.0" encoding="UTF-8" standalone="no"?><!DOCTYPE svg PUBLIC "-//W3C//DTD SVG 1.1//EN" "http://www.w3.org/Graphics/SVG/1.1/DTD/svg11.dtd"><svg width="100%" height="100%" viewBox="0 0 142 142" version="1.1" xmlns="http://www.w3.org/2000/svg" xmlns:xlink="http://www.w3.org/1999/xlink" xml:space="preserve" xmlns:serif="http://www.serif.com/" style="fill-rule:evenodd;clip-rule:evenodd;stroke-miterlimit:2;"><g id="Twitter"><path d="M70.005,135.753c-36.667,-0 -66.667,-30 -66.667,-66.667c0,-36.666 30,-66.666 66.667,-66.666c36.666,-0 66.666,30 66.666,66.666c0,36.667 -30,66.667 -66.666,66.667Z" style="fill:none;stroke:#231f20;stroke-width:2.03px;stroke-dasharray:5.78,5.78,5.78,5.78,5.78,5.78;"/><path d="M55.503,88.849c-8.672,-0.303 -14.102,-6.533 -15.533,-11.592c2.414,0.463 4.792,0.373 7.156,-0.21c0.064,-0.014 0.128,-0.057 0.238,-0.113c-4.699,-1.097 -8.321,-3.607 -10.845,-7.662c-1.67,-2.694 -2.471,-5.641 -2.441,-8.875c2.343,1.247 4.797,1.951 7.43,2.02c-3.531,-2.547 -5.901,-5.872 -6.87,-10.13c-0.968,-4.247 -0.345,-8.281 1.789,-12.089c9.044,10.644 20.48,16.487 34.435,17.449c-0.092,-0.668 -0.204,-1.242 -0.266,-1.831c-0.471,-3.93 0.315,-7.592 2.441,-10.918c2.652,-4.167 6.449,-6.756 11.318,-7.55c5.619,-0.917 10.524,0.682 14.622,4.66c0.272,0.266 0.502,0.349 0.883,0.266c3.436,-0.751 6.673,-1.986 9.718,-3.74c0.071,-0.04 0.146,-0.077 0.217,-0.111c0.017,-0.007 0.042,-0.007 0.113,-0.007c-1.321,3.88 -3.73,6.875 -7.151,9.084c3.233,-0.358 6.323,-1.215 9.296,-2.503c0.025,0.028 0.05,0.055 0.071,0.077c-0.64,0.835 -1.258,1.689 -1.923,2.504c-1.769,2.184 -3.801,4.106 -6.064,5.769c-0.192,0.139 -0.284,0.273 -0.28,0.526c0.092,2.474 0,4.951 -0.306,7.408c-0.647,5.192 -2.09,10.139 -4.31,14.865c-2.288,4.884 -5.261,9.29 -9.02,13.165c-6.359,6.572 -14.019,10.818 -22.945,12.79c-3.058,0.673 -6.166,1.008 -9.301,1.1c-9.627,0.282 -18.53,-2.111 -26.718,-7.169c-0.105,-0.063 -0.211,-0.135 -0.394,-0.252c5.823,0.624 11.367,-0.119 16.7,-2.301c2.833,-1.164 5.457,-2.688 7.94,-4.63Z" style="fill:#1cc3f4;"/></g></svg>