<?xml version="1.0" encoding="UTF-8" standalone="no"?><!DOCTYPE svg PUBLIC "-//W3C//DTD SVG 1.1//EN" "http://www.w3.org/Graphics/SVG/1.1/DTD/svg11.dtd"><svg width="100%" height="100%" viewBox="0 0 142 142" version="1.1" xmlns="http://www.w3.org/2000/svg" xmlns:xlink="http://www.w3.org/1999/xlink" xml:space="preserve" xmlns:serif="http://www.serif.com/" style="fill-rule:evenodd;clip-rule:evenodd;stroke-miterlimit:2;"><g id="Youtube"><path d="M71.136,135.753l-0,-0c-36.667,-0 -66.667,-30 -66.667,-66.667c-0,-36.666 30,-66.666 66.667,-66.666l-0,0c36.666,0 66.666,30 66.666,66.666c0,36.667 -30,66.667 -66.666,66.667Z" style="fill:none;stroke:#231f20;stroke-width:2.03px;stroke-dasharray:5.78,5.78,5.78,5.78,5.78,5.78;"/><g><path d="M61.443,80.757c8.256,-4.284 16.438,-8.527 24.728,-12.824c-8.296,-4.334 -16.489,-8.599 -24.728,-12.906l-0,25.73Zm-21.817,14.269c-3.007,-0.985 -5.024,-2.953 -6.111,-5.934c-2.653,-7.282 -3.432,-37.725 1.668,-43.722c1.737,-2.051 3.98,-3.254 6.654,-3.536c13.734,-1.481 56.171,-1.272 61.061,0.492c2.862,1.034 4.895,2.903 6.007,5.774c2.894,7.524 2.994,34.895 -0.379,42.145c-0.925,1.964 -2.411,3.359 -4.306,4.348c-5.127,2.689 -57.857,2.648 -64.594,0.433Z" style="fill:#f04b45;"/><path d="M61.443,80.757c8.256,-4.284 16.438,-8.527 24.728,-12.824c-8.296,-4.334 -16.489,-8.599 -24.728,-12.906l-0,25.73Z" style="fill:#fff;"/></g></g></svg>